<svg width="90" height="80" viewBox="0 0 90 80" fill="none" xmlns="http://www.w3.org/2000/svg">
<path d="M80 5C85.5156 5 90 9.47656 90 15V20H0V15C0 9.47656 4.47656 5 10 5H80ZM90 65C90 70.5156 85.5156 75 80 75H10C4.47656 75 0 70.5156 0 65V35H90V65ZM17.5 55C16.125 55 15 56.125 15 57.5C15 58.875 16.125 60 17.5 60H27.5C28.875 60 30 58.875 30 57.5C30 56.125 28.875 55 27.5 55H17.5ZM37.5 60H57.5C58.875 60 60 58.875 60 57.5C60 56.125 58.875 55 57.5 55H37.5C36.125 55 35 56.125 35 57.5C35 58.875 36.125 60 37.5 60Z" fill="#EF7B00"/>
</svg>
